<svg width="118" height="48" viewBox="0 0 118 48" fill="none" xmlns="http://www.w3.org/2000/svg">
<path d="M52.6653 27.4532V33.018L51.9434 33.1257C51.6235 33.197 51.2967 33.2332 50.9688 33.2334C50.4444 33.2761 49.9214 33.1365 49.4889 32.8385C49.3284 32.6661 49.2068 32.4617 49.1321 32.2388C49.0574 32.0159 49.0314 31.7797 49.0557 31.5461V17.6879C49.0462 17.3866 49.1491 17.0925 49.3445 16.8622C49.5604 16.6624 49.8199 16.5149 50.1025 16.4313L51.1132 16.18L52.2322 16.0005L53.3873 15.9287H54.5062C56.9608 15.9287 58.7656 16.4313 59.9928 17.4725C60.6102 17.9812 61.1009 18.6252 61.4265 19.3539C61.7521 20.0826 61.9038 20.8763 61.8698 21.673C61.8698 23.4681 61.2562 24.8683 60.065 25.9095C58.8738 26.9506 57.1051 27.4891 54.8311 27.4891L52.6653 27.4532ZM54.6145 24.5811C55.5472 24.6256 56.4699 24.3742 57.2495 23.863C57.8632 23.3963 58.188 22.6424 58.188 21.6371C58.2151 21.2331 58.1477 20.8284 57.9912 20.4547C57.8346 20.0809 57.5931 19.7483 57.2856 19.483C56.672 19.0163 55.8057 18.765 54.6506 18.765C53.9726 18.7613 53.2958 18.8214 52.6292 18.9445V24.5811H54.6145Z" fill="#141414"/>
<path d="M76.0192 26.4841C76.0429 27.4622 75.8838 28.4361 75.5499 29.3563C75.2564 30.1865 74.7889 30.9453 74.1783 31.5822C73.5771 32.1863 72.8502 32.652 72.0486 32.9465C70.2322 33.6176 68.234 33.6176 66.4176 32.9465C65.606 32.6485 64.871 32.1752 64.2655 31.5606C63.66 30.9459 63.1992 30.2054 62.9163 29.3922C62.5859 28.4586 62.427 27.4736 62.4471 26.4841C62.4266 25.5063 62.5856 24.533 62.9163 23.612C63.2018 22.7885 63.6707 22.0398 64.288 21.422C64.9018 20.8162 65.6408 20.3507 66.4537 20.0577C68.2455 19.3883 70.2207 19.3883 72.0125 20.0577C72.8141 20.3522 73.541 20.8179 74.1422 21.422C74.7428 22.0597 75.22 22.8021 75.5499 23.612C75.8775 24.5338 76.0365 25.5066 76.0192 26.4841ZM69.2331 22.3195C68.784 22.2997 68.3366 22.3871 67.9284 22.5745C67.5202 22.7619 67.1631 23.0438 66.8869 23.3966C66.3093 24.1505 66.0206 25.1558 66.0206 26.4841C66.0206 27.8125 66.3093 28.8537 66.8508 29.5717C67.1489 29.9079 67.5154 30.1771 67.9262 30.3615C68.3369 30.546 68.7825 30.6413 69.2331 30.6413C69.6838 30.6413 70.1293 30.546 70.54 30.3615C70.9508 30.1771 71.3174 29.9079 71.6154 29.5717C72.1569 28.8537 72.4457 27.8125 72.4457 26.4841C72.4457 25.1558 72.1569 24.1505 71.5794 23.3966C71.3031 23.0438 70.946 22.7619 70.5378 22.5745C70.1296 22.3871 69.6822 22.2997 69.2331 22.3195Z" fill="#141414"/>
<path d="M83.9951 33.2331C83.498 33.2404 83.0015 33.1923 82.5152 33.0895C82.0947 32.9959 81.6838 32.8636 81.2879 32.6945V37.7926L80.6021 37.9362L79.6636 38.008C79.1557 38.05 78.648 37.9238 78.2198 37.649C77.8949 37.3977 77.7505 37.0028 77.7505 36.3924V22.3907C77.7318 22.0152 77.8194 21.6421 78.0032 21.3136C78.2294 20.9897 78.5253 20.7198 78.8695 20.5238C79.4991 20.1867 80.1651 19.9217 80.8548 19.734C81.7334 19.4773 82.6464 19.3562 83.562 19.3749C84.5138 19.3829 85.4605 19.5157 86.3775 19.7699C87.206 20.0228 87.9696 20.4515 88.6154 21.0264C89.2645 21.6179 89.7599 22.3571 90.0592 23.1805C90.4443 24.1637 90.6284 25.2133 90.6007 26.2681C90.6159 27.2954 90.4447 28.317 90.0953 29.2839C89.7993 30.1023 89.3317 30.8488 88.7237 31.4739C88.1309 32.0624 87.4166 32.5157 86.6301 32.8022C85.7819 33.0901 84.8914 33.2357 83.9951 33.2331ZM83.4537 30.4327C83.9395 30.4607 84.4257 30.3855 84.88 30.2122C85.3343 30.0389 85.7463 29.7714 86.0887 29.4275C86.7023 28.7453 87.0272 27.7042 87.0272 26.2681C87.0272 24.832 86.7023 23.7191 86.0526 23.0728C85.3783 22.4477 84.4833 22.1123 83.562 22.1394C83.111 22.1437 82.6623 22.204 82.2264 22.3189L81.2518 22.7497V29.8583C81.5593 30.038 81.8863 30.1825 82.2264 30.2891C82.626 30.4015 83.0385 30.4618 83.4537 30.4686V30.4327Z" fill="#141414"/>
<path d="M92.3352 16.0369C92.3307 15.782 92.3798 15.529 92.4792 15.2941C92.5787 15.0592 92.7263 14.8475 92.9128 14.6726C93.1051 14.4916 93.332 14.3507 93.58 14.2582C93.8279 14.1657 94.092 14.1235 94.3566 14.1341C94.6214 14.1214 94.8861 14.1627 95.1343 14.2553C95.3826 14.3479 95.6092 14.4899 95.8004 14.6726C95.9822 14.8493 96.1243 15.0621 96.2176 15.2972C96.3109 15.5323 96.3533 15.7844 96.3419 16.0369C96.352 16.2989 96.3076 16.5601 96.2114 16.8043C96.1152 17.0484 95.9694 17.2701 95.783 17.4556C95.5965 17.641 95.3736 17.7861 95.1282 17.8817C94.8827 17.9774 94.62 18.0216 94.3566 18.0115C94.0886 18.0239 93.8211 17.9791 93.5721 17.88C93.323 17.7809 93.0982 17.6298 92.9128 17.437C92.7217 17.2581 92.5714 17.0406 92.4717 16.7991C92.3721 16.5576 92.3256 16.2977 92.3352 16.0369ZM92.624 20.0579L93.2737 19.9143C93.5826 19.8534 93.8976 19.8293 94.2122 19.8425C94.7201 19.8004 95.2278 19.9267 95.656 20.2015C95.8264 20.3608 95.9574 20.5571 96.0388 20.7751C96.1202 20.993 96.1498 21.2268 96.1253 21.458V33.0185L95.4395 33.1262C95.144 33.1973 94.8411 33.2334 94.5371 33.2339C94.0188 33.2639 93.5033 33.1389 93.0571 32.8749C92.8967 32.7025 92.775 32.498 92.7003 32.2751C92.6256 32.0522 92.5996 31.8161 92.624 31.5824V20.0579Z" fill="#141414"/>
<path d="M101.682 33.1261C101.386 33.1972 101.083 33.2334 100.779 33.2338C100.261 33.2639 99.7456 33.1388 99.2994 32.8748C99.139 32.7024 99.0173 32.498 98.9426 32.2751C98.8679 32.0522 98.8419 31.816 98.8663 31.5823V15.1033L99.516 14.9238L100.418 14.852C100.937 14.822 101.452 14.947 101.898 15.2111C102.059 15.3834 102.18 15.5879 102.255 15.8108C102.33 16.0337 102.356 16.2698 102.331 16.5035V33.0184L101.682 33.1261Z" fill="#141414"/>
<path d="M107.855 27.8834C108.068 28.7183 108.582 29.4464 109.299 29.9298C110.101 30.3818 111.013 30.6054 111.934 30.576C112.66 30.5825 113.381 30.461 114.064 30.217C114.62 30.0411 115.153 29.8 115.652 29.4989C115.925 29.6328 116.152 29.8455 116.302 30.1093C116.481 30.3462 116.571 30.6387 116.554 30.935C116.544 31.2887 116.417 31.6293 116.193 31.9044C115.903 32.219 115.545 32.4645 115.147 32.6224C114.666 32.8479 114.155 33.0051 113.631 33.0891C112.989 33.2199 112.336 33.2801 111.681 33.2686C110.678 33.2797 109.679 33.1344 108.722 32.8378C107.861 32.5552 107.073 32.0896 106.411 31.4735C105.754 30.8462 105.237 30.0876 104.895 29.2476C104.544 28.2565 104.372 27.211 104.39 26.1601C104.36 25.1434 104.532 24.1309 104.895 23.1802C105.226 22.3836 105.718 21.6627 106.339 21.062C106.927 20.4835 107.644 20.0527 108.433 19.8054C110.055 19.2302 111.828 19.2302 113.45 19.8054C114.17 20.0732 114.831 20.4753 115.399 20.9902C115.936 21.513 116.365 22.1349 116.663 22.8212C116.969 23.5479 117.117 24.3311 117.096 25.1189C117.118 25.3276 117.094 25.5387 117.025 25.7372C116.957 25.9356 116.845 26.1168 116.699 26.2678C116.396 26.5602 116 26.7381 115.58 26.7704L107.855 27.8834ZM110.959 21.9954C110.112 21.9846 109.295 22.3072 108.685 22.893C108.032 23.5848 107.659 24.4929 107.639 25.442L113.811 24.5445C113.737 23.8793 113.46 23.2527 113.017 22.7494C112.747 22.4861 112.424 22.2827 112.07 22.1527C111.715 22.0228 111.337 21.9692 110.959 21.9954Z" fill="#141414"/>
<path d="M37.7563 30.684L10.7927 45.9064V32.4791C12.8916 34.2242 15.5292 35.2001 18.2645 35.2435H18.4811C21.4011 35.2381 24.2016 34.0904 26.2778 32.0483C28.5533 29.843 29.8742 26.8419 29.9596 23.6831C29.98 22.1763 29.7002 20.6804 29.1364 19.2816C28.5727 17.8829 27.7361 16.609 26.6749 15.5334C24.455 13.3188 21.4448 12.0669 18.3006 12.0509C15.2085 12.0509 12.243 13.2726 10.0565 15.4474C7.87001 17.6221 6.64165 20.5717 6.64165 23.6472V47.3066C5.77116 47.3113 4.90832 47.1449 4.10273 46.8168C3.29713 46.4888 2.56468 46.0056 1.94747 45.395C1.33026 44.7844 0.840463 44.0586 0.506248 43.2591C0.172033 42.4596 -1.29962e-05 41.6023 7.36315e-10 40.7365V6.55788C0.00213677 5.41088 0.306137 4.28443 0.881766 3.29055C1.45739 2.29666 2.28459 1.46998 3.2811 0.892718C4.2776 0.315457 5.40868 0.00773073 6.56185 0.00014377C7.71502 -0.00744319 8.85009 0.285374 9.85419 0.849473L37.7563 16.6104C39.0012 17.3212 40.0354 18.3461 40.7547 19.5816C41.4739 20.8171 41.8526 22.2195 41.8526 23.6472C41.8526 25.0749 41.4739 26.4773 40.7547 27.7128C40.0354 28.9483 39.0012 29.9732 37.7563 30.684ZM23.3902 29.0684C24.1354 28.3625 24.7328 27.5169 25.1479 26.5803C25.563 25.6437 25.7875 24.6346 25.8086 23.6113C25.8237 22.6543 25.6462 21.7039 25.2867 20.8161C24.9272 19.9283 24.3928 19.1209 23.715 18.4414C22.6684 17.383 21.3296 16.6571 19.868 16.3558C18.4065 16.0544 16.8879 16.191 15.5045 16.7483C14.121 17.3056 12.9349 18.2586 12.0961 19.4867C11.2574 20.7147 10.8038 22.1626 10.7927 23.6472C10.7927 27.74 14.1135 31.0071 18.3367 31.1148C19.2736 31.1254 20.2032 30.9498 21.0709 30.5984C21.9387 30.247 22.7272 29.7269 23.3902 29.0684Z" fill="#955FFF"/>
</svg>
